<?xml version="1.0" encoding="UTF-8" standalone="no"?>
<svg
   id="svg8"
   version="1.1"
   viewBox="0 0 800 800"
   height="800"
   width="800"
   inkscape:version="1.3.2 (091e20ef0f, 2023-11-25, custom)"
   sodipodi:docname="logo.svg"
   xmlns:inkscape="http://www.inkscape.org/namespaces/inkscape"
   xmlns:sodipodi="http://sodipodi.sourceforge.net/DTD/sodipodi-0.dtd"
   xmlns:xlink="http://www.w3.org/1999/xlink"
   xmlns="http://www.w3.org/2000/svg"
   xmlns:svg="http://www.w3.org/2000/svg"
   xmlns:rdf="http://www.w3.org/1999/02/22-rdf-syntax-ns#"
   xmlns:cc="http://creativecommons.org/ns#"
   xmlns:dc="http://purl.org/dc/elements/1.1/"
   xmlns:ns1="http://www.iki.fi/pav/software/textext/">
  <sodipodi:namedview
     pagecolor="#b2b2b2"
     bordercolor="#000000"
     borderopacity="1"
     objecttolerance="5"
     gridtolerance="10"
     guidetolerance="5"
     inkscape:pageopacity="1"
     inkscape:pageshadow="2"
     inkscape:window-width="2216"
     inkscape:window-height="1436"
     id="namedview10"
     showgrid="true"
     inkscape:zoom="0.87158499"
     inkscape:cx="129.64886"
     inkscape:cy="367.72088"
     inkscape:window-x="15"
     inkscape:window-y="15"
     inkscape:window-maximized="0"
     inkscape:current-layer="svg8"
     showguides="false"
     inkscape:pagecheckerboard="true"
     borderlayer="true"
     scale-x="1"
     fit-margin-top="0"
     fit-margin-left="0"
     fit-margin-right="0"
     fit-margin-bottom="0"
     units="px"
     width="1000px"
     inkscape:showpageshadow="0"
     inkscape:deskcolor="#d1d1d1">
    <inkscape:grid
       type="xygrid"
       id="rectangular"
       units="px"
       spacingx="10"
       spacingy="10"
       dotted="true"
       empspacing="10"
       snapvisiblegridlinesonly="true"
       visible="true"
       enabled="true"
       color="#202020"
       opacity="1"
       empcolor="#000000"
       empopacity="1"
       originx="0"
       originy="0" />
    <inkscape:grid
       type="axonomgrid"
       id="isometric"
       color="#202020"
       opacity="0.10196078"
       empcolor="#000000"
       empopacity="0.25098039"
       spacingy="10"
       units="px"
       empspacing="10"
       gridanglez="30"
       originx="500"
       enabled="false"
       originy="0"
       gridanglex="30"
       visible="true" />
  </sodipodi:namedview>
  <defs
     id="defs2">
    <linearGradient
       id="linearGradient15"
       inkscape:collect="always">
      <stop
         style="stop-color:#ffffff;stop-opacity:1;"
         offset="0.28063127"
         id="stop15" />
      <stop
         style="stop-color:#ffffff;stop-opacity:0;"
         offset="1"
         id="stop16" />
    </linearGradient>
    <marker
       inkscape:stockid="TeXArrow_1.0Start"
       style="overflow:visible"
       refY="0"
       refX="0"
       orient="auto"
       id="TeXArrow_1.0Start">
      <path
         id="path826"
         transform="matrix(0.4,0,0,0.4,3.5272,0)"
         style="fill:#000000;fill-rule:evenodd;stroke:#000000;stroke-width:1"
         d="M 0,0 5,-5 -12.5,0 5,5 Z"
         inkscape:connector-curvature="0" />
    </marker>
    <marker
       inkscape:stockid="TeXArrow_1.0End"
       style="overflow:visible"
       refY="0"
       refX="0"
       orient="auto"
       id="TeXArrow_1.0End">
      <path
         id="path829"
         transform="matrix(-0.4,0,0,-0.4,-3.5272,0)"
         style="fill:#000000;fill-rule:evenodd;stroke:#000000;stroke-width:1"
         d="M 0,0 5,-5 -12.5,0 5,5 Z"
         inkscape:connector-curvature="0" />
    </marker>
    <marker
       inkscape:stockid="MyDot_1.0"
       style="overflow:visible"
       refY="0"
       refX="0"
       orient="auto"
       id="MyDot_1.0">
      <path
         id="path874"
         transform="matrix(0.4,0,0,0.4,2.96,0.4)"
         style="fill:#000000;fill-rule:evenodd;stroke:#000000;stroke-width:1"
         d="m -2.5,-1 c 0,2.76 -2.24,5 -5,5 -2.76,0 -5,-2.24 -5,-5 0,-2.76 2.24,-5 5,-5 2.76,0 5,2.24 5,5 z" />
    </marker>
    <marker
       inkscape:stockid="MyEllipsis_1.0Start"
       style="overflow:visible"
       refY="0"
       refX="0"
       orient="auto"
       id="MyEllipsis_1.0Start">
      <path
         id="path877"
         transform="translate(-6)"
         style="fill:#000000;fill-rule:evenodd;stroke:none;stroke-width:1"
         d="m 0.5,0 a 0.5,0.5 0 1 1 -1,0 0.5,0.5 0 1 1 1,0 z m 2,0 a 0.5,0.5 0 1 1 -1,0 0.5,0.5 0 1 1 1,0 z m 2,0 a 0.5,0.5 0 1 1 -1,0 0.5,0.5 0 1 1 1,0 z" />
    </marker>
    <marker
       inkscape:stockid="MyEllipsis_1.0End"
       style="overflow:visible"
       refY="0"
       refX="0"
       orient="auto"
       id="MyEllipsis_1.0End">
      <path
         id="path880"
         transform="translate(2)"
         style="fill:#000000;fill-rule:evenodd;stroke:none;stroke-width:1"
         d="m 0.5,0 a 0.5,0.5 0 1 1 -1,0 0.5,0.5 0 1 1 1,0 z m 2,0 a 0.5,0.5 0 1 1 -1,0 0.5,0.5 0 1 1 1,0 z m 2,0 a 0.5,0.5 0 1 1 -1,0 0.5,0.5 0 1 1 1,0 z" />
    </marker>
    <marker
       inkscape:stockid="MyArrow_1.0Start"
       style="overflow:visible"
       refY="0"
       refX="0"
       orient="auto"
       id="MyArrow_1.0Start">
      <path
         id="path883"
         transform="matrix(0.4,0,0,0.4,3.5272,0)"
         style="fill:#000000;fill-rule:evenodd;stroke:#000000;stroke-width:1"
         d="M 0,0 5,-5 -12.5,0 5,5 Z" />
    </marker>
    <marker
       inkscape:stockid="MyArrow_1.0End"
       style="overflow:visible"
       refY="0"
       refX="0"
       orient="auto"
       id="MyArrow_1.0End">
      <path
         id="path886"
         transform="matrix(-0.4,0,0,-0.4,-3.5272,0)"
         style="fill:#000000;fill-rule:evenodd;stroke:#000000;stroke-width:1"
         d="M 0,0 5,-5 -12.5,0 5,5 Z" />
    </marker>
    <marker
       inkscape:stockid="TeXArrow_1.0"
       style="overflow:visible"
       refY="0"
       refX="0"
       orient="auto"
       id="TeXArrow_1.0">
      <path
         id="path889"
         style="fill:#000000;fill-rule:evenodd;stroke:#000000;stroke-width:1"
         d="m -5,4 c 1,-1.2 3,-3 4.99,-3.99 a 0.01,0.01 0 1 0 0,-0.02 C -2,-1 -4,-2.8 -5,-4 c 1,1.2 3,3 4.99,3.99 a 0.01,0.01 0 1 0 0,0.02 C -2,1 -4,2.8 -5,4" />
    </marker>
    <marker
       inkscape:stockid="TeXArrow_1.0Start"
       style="overflow:visible"
       refY="0"
       refX="0"
       orient="auto"
       id="TeXArrow_1.0Start-2">
      <path
         id="path826-5"
         transform="matrix(0.4,0,0,0.4,3.5272,0)"
         style="fill:#000000;fill-rule:evenodd;stroke:#000000;stroke-width:1"
         d="M 0,0 5,-5 -12.5,0 5,5 Z"
         inkscape:connector-curvature="0" />
    </marker>
    <marker
       inkscape:stockid="TeXArrow_1.0End"
       style="overflow:visible"
       refY="0"
       refX="0"
       orient="auto"
       id="TeXArrow_1.0End-8">
      <path
         id="path829-6"
         transform="matrix(-0.4,0,0,-0.4,-3.5272,0)"
         style="fill:#000000;fill-rule:evenodd;stroke:#000000;stroke-width:1"
         d="M 0,0 5,-5 -12.5,0 5,5 Z"
         inkscape:connector-curvature="0" />
    </marker>
    <marker
       inkscape:stockid="TeXArrow_1.0"
       style="overflow:visible"
       refY="0"
       refX="0"
       orient="auto"
       id="TeXArrow_1.0-2">
      <path
         id="path832"
         style="fill:#000000;fill-rule:evenodd;stroke:#000000;stroke-width:1"
         d="m -4,3 c 1,-1 2,-2 4,-3 -2,-1 -3,-2 -4,-3 1,1 2,2 4,3 -2,1 -3,2 -4,3"
         inkscape:connector-curvature="0" />
    </marker>
    <marker
       inkscape:stockid="TeXArrow_1.0Start"
       style="overflow:visible"
       refY="0"
       refX="0"
       orient="auto"
       id="TeXArrow_1.0Start-0">
      <path
         id="path826-6"
         transform="matrix(0.4,0,0,0.4,3.5272,0)"
         style="fill:#000000;fill-rule:evenodd;stroke:#000000;stroke-width:1"
         d="M 0,0 5,-5 -12.5,0 5,5 Z"
         inkscape:connector-curvature="0" />
    </marker>
    <marker
       inkscape:stockid="TeXArrow_1.0End"
       style="overflow:visible"
       refY="0"
       refX="0"
       orient="auto"
       id="TeXArrow_1.0End-2">
      <path
         id="path829-9"
         transform="matrix(-0.4,0,0,-0.4,-3.5272,0)"
         style="fill:#000000;fill-rule:evenodd;stroke:#000000;stroke-width:1"
         d="M 0,0 5,-5 -12.5,0 5,5 Z"
         inkscape:connector-curvature="0" />
    </marker>
    <marker
       inkscape:stockid="TeXArrow_1.0"
       style="overflow:visible"
       refY="0"
       refX="0"
       orient="auto"
       id="TeXArrow_1.0-9">
      <path
         id="path832-0"
         style="fill:#000000;fill-rule:evenodd;stroke:#000000;stroke-width:1"
         d="m -4,3 c 1,-1 2,-2 4,-3 -2,-1 -3,-2 -4,-3 1,1 2,2 4,3 -2,1 -3,2 -4,3"
         inkscape:connector-curvature="0" />
    </marker>
    <radialGradient
       inkscape:collect="always"
       xlink:href="#linearGradient15"
       id="radialGradient16"
       cx="500"
       cy="400"
       fx="500"
       fy="400"
       r="400"
       gradientUnits="userSpaceOnUse"
       gradientTransform="translate(-100)" />
  </defs>
  <metadata
     id="metadata5">
    <rdf:RDF>
      <cc:Work
         rdf:about="">
        <dc:format>image/svg+xml</dc:format>
        <dc:type
           rdf:resource="http://purl.org/dc/dcmitype/StillImage" />
      </cc:Work>
    </rdf:RDF>
  </metadata>
  <circle
     style="fill:url(#radialGradient16);fill-rule:evenodd;stroke:none;stroke-width:3.5;stroke-linecap:butt;stroke-dasharray:none;stroke-dashoffset:1.35"
     id="path15"
     cx="400"
     cy="400"
     r="400" />
  <path
     style="fill:#e6737d;fill-opacity:1;fill-rule:evenodd;stroke:#000000;stroke-width:3.5;stroke-linecap:butt;stroke-dasharray:none;stroke-dashoffset:1.35"
     d="M 400,400 V 50"
     id="path4"
     sodipodi:nodetypes="cc" />
  <path
     style="fill:#e6737d;fill-opacity:1;fill-rule:evenodd;stroke:#000000;stroke-width:3.5;stroke-linecap:butt;stroke-dasharray:none;stroke-dashoffset:1.35"
     d="M 400,400 V 750"
     id="path5"
     sodipodi:nodetypes="cc" />
  <path
     style="fill:none;fill-opacity:1;fill-rule:evenodd;stroke:#000000;stroke-width:3.5;stroke-linecap:butt;stroke-dasharray:none;stroke-dashoffset:1.35"
     d="m 400,400 c 100,60 160,50 160,10 0,-20 -10,-40 -40,-80 C 470,270 450,180 450,80"
     id="path7"
     sodipodi:nodetypes="cscc" />
  <path
     style="fill:none;fill-opacity:1;fill-rule:evenodd;stroke:#000000;stroke-width:3.5;stroke-linecap:butt;stroke-dasharray:none;stroke-dashoffset:1.35"
     d="M 400,400 C 300,340 240,350 240,390 c 0,20 10,40 40,80 50,60 70,150 70,250"
     id="path7-6"
     sodipodi:nodetypes="cscc" />
  <rect
     style="fill:#facd73;fill-opacity:1;fill-rule:evenodd;stroke:#000000;stroke-width:3.5;stroke-linecap:round;stroke-dasharray:none;stroke-dashoffset:1.35"
     id="rect2"
     width="50"
     height="50"
     x="375"
     y="200" />
  <path
     style="fill:none;fill-opacity:1;fill-rule:evenodd;stroke:#000000;stroke-width:3.5;stroke-linecap:butt;stroke-dasharray:none;stroke-dashoffset:1.35"
     d="m 400,400 c 20,60 50,70 50,100 0,80 -10,40 -10,230"
     id="path8"
     sodipodi:nodetypes="ccc" />
  <path
     style="fill:none;fill-opacity:1;fill-rule:evenodd;stroke:#000000;stroke-width:3.5;stroke-linecap:butt;stroke-dasharray:none;stroke-dashoffset:1.35"
     d="m 400,400 c -20,-60 -50,-70 -50,-100 0,-80 10,-40 10,-230"
     id="path8-9"
     sodipodi:nodetypes="ccc" />
  <rect
     style="fill:#facd73;fill-opacity:1;fill-rule:evenodd;stroke:#000000;stroke-width:3.5;stroke-linecap:round;stroke-dasharray:none;stroke-dashoffset:1.35"
     id="rect2-3"
     width="50"
     height="50"
     x="375"
     y="550" />
  <path
     style="fill:none;fill-opacity:1;fill-rule:evenodd;stroke:#000000;stroke-width:3.5;stroke-linecap:butt;stroke-dasharray:none;stroke-dashoffset:1.35"
     d="m 400,400 c -50,-60 -60,-40 -100,-80 -10,-10 -30,-20 -30,-50 0,-40 60,-70 60,-170"
     id="path9-2"
     sodipodi:nodetypes="ccsc" />
  <path
     style="fill:none;fill-opacity:1;fill-rule:evenodd;stroke:#000000;stroke-width:3.5;stroke-linecap:butt;stroke-dasharray:none;stroke-dashoffset:1.35"
     d="m 400,400 c 50,60 60,40 100,80 10,10 30,20 30,50 0,40 -60,70 -60,170"
     id="path9-2-1"
     sodipodi:nodetypes="ccsc" />
  <path
     style="fill:#facd73;fill-opacity:1;fill-rule:evenodd;stroke:#000000;stroke-width:3.5;stroke-linecap:butt;stroke-dasharray:none;stroke-dashoffset:1.35"
     d="m 500,460 -20,20 20,20 20,-20 z"
     id="path6-5" />
  <path
     style="fill:#facd73;fill-opacity:1;fill-rule:evenodd;stroke:#000000;stroke-width:3.5;stroke-linecap:butt;stroke-dasharray:none;stroke-dashoffset:1.35"
     d="m 300,300 -20,20 20,20 20,-20 z"
     id="path6" />
  <circle
     style="fill:#7396fa;fill-opacity:1;fill-rule:evenodd;stroke:#000000;stroke-width:3.5;stroke-linecap:round;stroke-dasharray:none;stroke-dashoffset:1.35"
     id="path1"
     cx="400"
     cy="400"
     r="50" />
  <g
     transform="matrix(4.66665,0,0,4.66665,389.35304,564.46475)"
     ns1:version="1.10.2"
     ns1:texconverter="xelatex"
     ns1:pdfconverter="inkscape"
     ns1:text="$$a$$"
     ns1:preamble="/home/whooie/Documents/templates/latex/whooie/inkscape_textext.sty"
     ns1:scale="3.5"
     ns1:alignment="middle center"
     ns1:stroke-to-path="0"
     ns1:inkscapeversion="1.2.2"
     id="g142"
     ns1:jacobian_sqrt="4.66665">
    <defs
       id="id-1d85d0b5-8a14-413a-aa13-2db4f004c054">
      <g
         id="id-9436574d-5e57-4bb3-9218-28b8278ed612">
        <g
           id="id-98146597-28a9-4f01-a20b-e779f58960b4">
          <path
             d="M 3.71875,-3.765625 C 3.53125,-4.140625 3.25,-4.40625 2.796875,-4.40625 c -1.15625,0 -2.390625,1.46875 -2.390625,2.921875 0,0.9375 0.546875,1.59375 1.3125,1.59375 0.203125,0 0.703125,-0.046875 1.296875,-0.75 0.078125,0.421875 0.4375,0.75 0.90625,0.75 0.359375,0 0.578125,-0.234375 0.75,-0.546875 0.15625,-0.359375 0.296875,-0.96875 0.296875,-0.984375 0,-0.109375 -0.09375,-0.109375 -0.125,-0.109375 -0.09375,0 -0.109375,0.046875 -0.140625,0.1875 -0.171875,0.640625 -0.34375,1.234375 -0.75,1.234375 -0.28125,0 -0.296875,-0.265625 -0.296875,-0.453125 0,-0.21875 0.015625,-0.3125 0.125,-0.75 C 3.890625,-1.71875 3.90625,-1.828125 4,-2.203125 L 4.359375,-3.59375 c 0.0625,-0.28125 0.0625,-0.296875 0.0625,-0.34375 0,-0.171875 -0.109375,-0.265625 -0.28125,-0.265625 -0.25,0 -0.390625,0.21875 -0.421875,0.4375 z M 3.078125,-1.1875 C 3.015625,-1 3.015625,-0.984375 2.875,-0.8125 2.4375,-0.265625 2.03125,-0.109375 1.75,-0.109375 c -0.5,0 -0.640625,-0.546875 -0.640625,-0.9375 0,-0.5 0.3125,-1.71875 0.546875,-2.1875 0.3125,-0.578125 0.75,-0.953125 1.15625,-0.953125 0.640625,0 0.78125,0.8125 0.78125,0.875 0,0.0625 -0.015625,0.125 -0.03125,0.171875 z m 0,0"
             id="id-96c8b88a-35e9-4f9b-b298-4471ce824be8" />
        </g>
      </g>
    </defs>
    <g
       fill="#000000"
       fill-opacity="1"
       id="id-68b3378c-d88e-469e-9058-aa733ed9276d"
       transform="translate(-303.397,-142.314)">
      <g
         transform="translate(302.991,146.72)"
         id="g5194">
        <path
           d="M 3.71875,-3.765625 C 3.53125,-4.140625 3.25,-4.40625 2.796875,-4.40625 c -1.15625,0 -2.390625,1.46875 -2.390625,2.921875 0,0.9375 0.546875,1.59375 1.3125,1.59375 0.203125,0 0.703125,-0.046875 1.296875,-0.75 0.078125,0.421875 0.4375,0.75 0.90625,0.75 0.359375,0 0.578125,-0.234375 0.75,-0.546875 0.15625,-0.359375 0.296875,-0.96875 0.296875,-0.984375 0,-0.109375 -0.09375,-0.109375 -0.125,-0.109375 -0.09375,0 -0.109375,0.046875 -0.140625,0.1875 -0.171875,0.640625 -0.34375,1.234375 -0.75,1.234375 -0.28125,0 -0.296875,-0.265625 -0.296875,-0.453125 0,-0.21875 0.015625,-0.3125 0.125,-0.75 C 3.890625,-1.71875 3.90625,-1.828125 4,-2.203125 L 4.359375,-3.59375 c 0.0625,-0.28125 0.0625,-0.296875 0.0625,-0.34375 0,-0.171875 -0.109375,-0.265625 -0.28125,-0.265625 -0.25,0 -0.390625,0.21875 -0.421875,0.4375 z M 3.078125,-1.1875 C 3.015625,-1 3.015625,-0.984375 2.875,-0.8125 2.4375,-0.265625 2.03125,-0.109375 1.75,-0.109375 c -0.5,0 -0.640625,-0.546875 -0.640625,-0.9375 0,-0.5 0.3125,-1.71875 0.546875,-2.1875 0.3125,-0.578125 0.75,-0.953125 1.15625,-0.953125 0.640625,0 0.78125,0.8125 0.78125,0.875 0,0.0625 -0.015625,0.125 -0.03125,0.171875 z m 0,0"
           id="id-816fde1c-a96a-40ec-9962-1f0d2484c3c4" />
      </g>
    </g>
  </g>
  <g
     transform="matrix(4.66665,0,0,4.66665,393.87561,209.35826)"
     ns1:version="1.10.2"
     ns1:texconverter="xelatex"
     ns1:pdfconverter="inkscape"
     ns1:text="$$i$$"
     ns1:preamble="/home/whooie/Documents/templates/latex/whooie/inkscape_textext.sty"
     ns1:scale="3.5"
     ns1:alignment="middle center"
     ns1:stroke-to-path="0"
     ns1:inkscapeversion="1.2.2"
     id="g917"
     ns1:jacobian_sqrt="4.66665">
    <defs
       id="id-dd119c4f-91b8-4212-9f52-25137a4ef1c1">
      <g
         id="id-69f727f2-1b74-455c-9ead-3711f699a61f">
        <g
           id="id-975032e9-fd7c-4def-b5b3-2721c9f5e4d6">
          <path
             d="m 2.828125,-6.234375 c 0,-0.203125 -0.140625,-0.359375 -0.359375,-0.359375 -0.28125,0 -0.546875,0.265625 -0.546875,0.53125 0,0.1875 0.140625,0.359375 0.375,0.359375 0.234375,0 0.53125,-0.234375 0.53125,-0.53125 z m -0.75,3.75 c 0.109375,-0.28125 0.109375,-0.3125 0.21875,-0.578125 0.078125,-0.203125 0.125,-0.34375 0.125,-0.53125 0,-0.4375 -0.3125,-0.8125 -0.8125,-0.8125 -0.9375,0 -1.3125,1.453125 -1.3125,1.53125 0,0.109375 0.09375,0.109375 0.109375,0.109375 0.109375,0 0.109375,-0.03125 0.15625,-0.1875 0.28125,-0.9375 0.671875,-1.234375 1.015625,-1.234375 0.078125,0 0.25,0 0.25,0.3125 0,0.21875 -0.078125,0.421875 -0.109375,0.53125 -0.078125,0.25 -0.53125,1.40625 -0.6875,1.84375 -0.109375,0.25 -0.234375,0.578125 -0.234375,0.796875 0,0.46875 0.34375,0.8125 0.8125,0.8125 0.9375,0 1.3125,-1.4375 1.3125,-1.53125 0,-0.109375 -0.09375,-0.109375 -0.125,-0.109375 -0.09375,0 -0.09375,0.03125 -0.140625,0.1875 -0.1875,0.625 -0.515625,1.234375 -1.015625,1.234375 -0.171875,0 -0.25,-0.09375 -0.25,-0.328125 0,-0.25 0.0625,-0.390625 0.296875,-1 z m 0,0"
             id="id-8304653f-b8e1-4db1-8bcf-54f7b6c9a10a" />
        </g>
      </g>
    </defs>
    <g
       fill="#000000"
       fill-opacity="1"
       id="id-26ca76d4-a438-4f86-ba17-e5c6b55ce1e6"
       transform="translate(-304.205,-140.126)">
      <g
         transform="translate(303.908,146.72)"
         id="g6281">
        <path
           d="m 2.828125,-6.234375 c 0,-0.203125 -0.140625,-0.359375 -0.359375,-0.359375 -0.28125,0 -0.546875,0.265625 -0.546875,0.53125 0,0.1875 0.140625,0.359375 0.375,0.359375 0.234375,0 0.53125,-0.234375 0.53125,-0.53125 z m -0.75,3.75 c 0.109375,-0.28125 0.109375,-0.3125 0.21875,-0.578125 0.078125,-0.203125 0.125,-0.34375 0.125,-0.53125 0,-0.4375 -0.3125,-0.8125 -0.8125,-0.8125 -0.9375,0 -1.3125,1.453125 -1.3125,1.53125 0,0.109375 0.09375,0.109375 0.109375,0.109375 0.109375,0 0.109375,-0.03125 0.15625,-0.1875 0.28125,-0.9375 0.671875,-1.234375 1.015625,-1.234375 0.078125,0 0.25,0 0.25,0.3125 0,0.21875 -0.078125,0.421875 -0.109375,0.53125 -0.078125,0.25 -0.53125,1.40625 -0.6875,1.84375 -0.109375,0.25 -0.234375,0.578125 -0.234375,0.796875 0,0.46875 0.34375,0.8125 0.8125,0.8125 0.9375,0 1.3125,-1.4375 1.3125,-1.53125 0,-0.109375 -0.09375,-0.109375 -0.125,-0.109375 -0.09375,0 -0.09375,0.03125 -0.140625,0.1875 -0.1875,0.625 -0.515625,1.234375 -1.015625,1.234375 -0.171875,0 -0.25,-0.09375 -0.25,-0.328125 0,-0.25 0.0625,-0.390625 0.296875,-1 z m 0,0"
           id="id-5a66877e-d38c-4946-b128-5e6a14a3f121" />
      </g>
    </g>
  </g>
  <path
     style="fill:none;fill-opacity:1;fill-rule:evenodd;stroke:#000000;stroke-width:3.5;stroke-linecap:butt;stroke-dasharray:none;stroke-dashoffset:1.35"
     d="m 350,300 c 30,-10 40,-30 40,-50"
     id="path9"
     sodipodi:nodetypes="cc" />
  <path
     style="fill:none;fill-opacity:1;fill-rule:evenodd;stroke:#000000;stroke-width:3.5;stroke-linecap:butt;stroke-dasharray:none;stroke-dashoffset:1.35"
     d="m 450,500 c -30,10 -40,30 -40,50"
     id="path9-27"
     sodipodi:nodetypes="cc" />
  <circle
     style="fill:#e6737d;fill-opacity:1;fill-rule:evenodd;stroke:#000000;stroke-width:3.5;stroke-linecap:round;stroke-dasharray:none;stroke-dashoffset:1.35"
     id="path3-3"
     cx="450"
     cy="500"
     r="20" />
  <circle
     style="fill:#e6737d;fill-opacity:1;fill-rule:evenodd;stroke:#000000;stroke-width:3.5;stroke-linecap:round;stroke-dasharray:none;stroke-dashoffset:1.35"
     id="path3"
     cx="350"
     cy="300"
     r="20" />
  <path
     style="fill:none;fill-opacity:1;fill-rule:evenodd;stroke:#000000;stroke-width:3.5;stroke-linecap:butt;stroke-dasharray:none;stroke-dashoffset:1.35"
     d="m 520,330 c -60,40 -110,0 -110,-80"
     id="path10"
     sodipodi:nodetypes="cc" />
  <path
     style="fill:none;fill-opacity:1;fill-rule:evenodd;stroke:#000000;stroke-width:3.5;stroke-linecap:butt;stroke-dasharray:none;stroke-dashoffset:1.35"
     d="m 280,470 c 60,-40 110,0 110,80"
     id="path10-0"
     sodipodi:nodetypes="cc" />
  <circle
     style="fill:#e6737d;fill-opacity:1;fill-rule:evenodd;stroke:#000000;stroke-width:3.5;stroke-linecap:round;stroke-dasharray:none;stroke-dashoffset:1.35"
     id="path2-6"
     cx="280"
     cy="470"
     r="30" />
  <g
     transform="matrix(3.99999,0,0,3.99999,269.12553,452.06354)"
     ns1:version="1.10.2"
     ns1:texconverter="xelatex"
     ns1:pdfconverter="inkscape"
     ns1:text="$$\\beta$$"
     ns1:preamble="/home/whooie/Documents/templates/latex/whooie/inkscape_textext.sty"
     ns1:scale="3.0"
     ns1:alignment="middle center"
     ns1:stroke-to-path="0"
     ns1:inkscapeversion="1.2.2"
     id="g8426"
     ns1:jacobian_sqrt="3.99999">
    <defs
       id="id-5313aa03-e993-408f-8f24-9db5086507db">
      <g
         id="id-a570f3e1-4d77-46a1-9fb8-39725106050d">
        <g
           id="id-4c46149a-8bbf-4a91-839e-851fe8d8f987">
          <path
             d="m 5.734375,-5.671875 c 0,-0.75 -0.546875,-1.359375 -1.359375,-1.359375 -0.578125,0 -0.859375,0.15625 -1.203125,0.40625 C 2.625,-6.21875 2.078125,-5.25 1.890625,-4.5 L 0.296875,1.828125 C 0.296875,1.875 0.34375,1.9375 0.421875,1.9375 0.5,1.9375 0.53125,1.90625 0.53125,1.890625 L 1.234375,-0.875 c 0.1875,0.609375 0.625,0.96875 1.359375,0.96875 C 3.3125,0.09375 4.0625,-0.25 4.515625,-0.6875 5,-1.140625 5.3125,-1.78125 5.3125,-2.515625 c 0,-0.71875 -0.375,-1.25 -0.734375,-1.484375 0.578125,-0.34375 1.15625,-0.953125 1.15625,-1.671875 z M 3.9375,-4.015625 c -0.125,0.046875 -0.234375,0.0625 -0.484375,0.0625 -0.140625,0 -0.328125,0.015625 -0.4375,-0.03125 0.03125,-0.109375 0.390625,-0.078125 0.5,-0.078125 0.203125,0 0.296875,0 0.421875,0.046875 z M 5.171875,-5.90625 c 0,0.703125 -0.375,1.421875 -0.890625,1.734375 C 4,-4.28125 3.8125,-4.296875 3.515625,-4.296875 c -0.21875,0 -0.78125,-0.015625 -0.78125,0.3125 0,0.28125 0.515625,0.25 0.6875,0.25 0.375,0 0.53125,0 0.828125,-0.125 0.375,0.359375 0.421875,0.671875 0.4375,1.125 0.015625,0.578125 -0.21875,1.328125 -0.5,1.71875 C 3.796875,-0.484375 3.125,-0.125 2.5625,-0.125 c -0.765625,0 -1.140625,-0.578125 -1.140625,-1.28125 0,-0.09375 0,-0.25 0.046875,-0.4375 L 2.109375,-4.359375 C 2.328125,-5.21875 3.046875,-6.8125 4.25,-6.8125 c 0.578125,0 0.921875,0.3125 0.921875,0.90625 z m 0,0"
             id="id-da0f766d-e245-4164-9024-1bd27086ca3a" />
        </g>
      </g>
    </defs>
    <g
       fill="#000000"
       fill-opacity="1"
       id="id-b000c2ef-23d1-4dbf-8229-0b8be3064081"
       transform="translate(-302.84,-139.689)">
      <g
         transform="translate(302.543,146.72)"
         id="g755">
        <path
           d="m 5.734375,-5.671875 c 0,-0.75 -0.546875,-1.359375 -1.359375,-1.359375 -0.578125,0 -0.859375,0.15625 -1.203125,0.40625 C 2.625,-6.21875 2.078125,-5.25 1.890625,-4.5 L 0.296875,1.828125 C 0.296875,1.875 0.34375,1.9375 0.421875,1.9375 0.5,1.9375 0.53125,1.90625 0.53125,1.890625 L 1.234375,-0.875 c 0.1875,0.609375 0.625,0.96875 1.359375,0.96875 C 3.3125,0.09375 4.0625,-0.25 4.515625,-0.6875 5,-1.140625 5.3125,-1.78125 5.3125,-2.515625 c 0,-0.71875 -0.375,-1.25 -0.734375,-1.484375 0.578125,-0.34375 1.15625,-0.953125 1.15625,-1.671875 z M 3.9375,-4.015625 c -0.125,0.046875 -0.234375,0.0625 -0.484375,0.0625 -0.140625,0 -0.328125,0.015625 -0.4375,-0.03125 0.03125,-0.109375 0.390625,-0.078125 0.5,-0.078125 0.203125,0 0.296875,0 0.421875,0.046875 z M 5.171875,-5.90625 c 0,0.703125 -0.375,1.421875 -0.890625,1.734375 C 4,-4.28125 3.8125,-4.296875 3.515625,-4.296875 c -0.21875,0 -0.78125,-0.015625 -0.78125,0.3125 0,0.28125 0.515625,0.25 0.6875,0.25 0.375,0 0.53125,0 0.828125,-0.125 0.375,0.359375 0.421875,0.671875 0.4375,1.125 0.015625,0.578125 -0.21875,1.328125 -0.5,1.71875 C 3.796875,-0.484375 3.125,-0.125 2.5625,-0.125 c -0.765625,0 -1.140625,-0.578125 -1.140625,-1.28125 0,-0.09375 0,-0.25 0.046875,-0.4375 L 2.109375,-4.359375 C 2.328125,-5.21875 3.046875,-6.8125 4.25,-6.8125 c 0.578125,0 0.921875,0.3125 0.921875,0.90625 z m 0,0"
           id="id-c87b35dd-7499-4d9e-9234-73ec0433bfde" />
      </g>
    </g>
  </g>
  <circle
     style="fill:#e6737d;fill-opacity:1;fill-rule:evenodd;stroke:#000000;stroke-width:3.5;stroke-linecap:round;stroke-dasharray:none;stroke-dashoffset:1.35"
     id="path2"
     cx="520"
     cy="330"
     r="30" />
  <g
     transform="matrix(4.66665,0,0,4.66665,506.9468,319.46475)"
     ns1:version="1.10.2"
     ns1:texconverter="xelatex"
     ns1:pdfconverter="inkscape"
     ns1:text="$$\\alpha$$"
     ns1:preamble="/home/whooie/Documents/templates/latex/whooie/inkscape_textext.sty"
     ns1:scale="3.5"
     ns1:alignment="middle center"
     ns1:stroke-to-path="0"
     ns1:inkscapeversion="1.2.2"
     id="g2151"
     ns1:jacobian_sqrt="4.66665">
    <defs
       id="id-465f7f5b-6877-461b-8b3f-6cf5aa983fa7">
      <g
         id="id-7dec3bc7-84c5-4773-8117-ce419279e297">
        <g
           id="id-83eafc43-a7f7-4b17-8391-5f223c8b634d">
          <path
             d="m 4.75,-2.359375 c 0,-1.5625 -0.921875,-2.046875 -1.65625,-2.046875 -1.375,0 -2.6875,1.421875 -2.6875,2.828125 0,0.9375 0.59375,1.6875 1.625,1.6875 0.625,0 1.34375,-0.234375 2.09375,-0.84375 0.125,0.53125 0.453125,0.84375 0.90625,0.84375 0.53125,0 0.84375,-0.546875 0.84375,-0.703125 0,-0.078125 -0.0625,-0.109375 -0.125,-0.109375 -0.0625,0 -0.09375,0.03125 -0.125,0.109375 -0.1875,0.484375 -0.546875,0.484375 -0.5625,0.484375 -0.3125,0 -0.3125,-0.78125 -0.3125,-1.015625 0,-0.203125 0,-0.234375 0.109375,-0.34375 C 5.796875,-2.65625 6,-3.8125 6,-3.8125 6,-3.84375 5.984375,-3.921875 5.875,-3.921875 c -0.09375,0 -0.09375,0.03125 -0.140625,0.21875 -0.1875,0.625 -0.515625,1.375 -0.984375,1.96875 z m -0.65625,1.375 c -0.890625,0.765625 -1.65625,0.875 -2.046875,0.875 -0.59375,0 -0.90625,-0.453125 -0.90625,-1.09375 0,-0.484375 0.265625,-1.5625 0.578125,-2.0625 C 2.1875,-4 2.734375,-4.1875 3.078125,-4.1875 c 0.984375,0 0.984375,1.3125 0.984375,2.078125 0,0.375 0,0.953125 0.03125,1.125 z m 0,0"
             id="id-c4ad1134-6c12-42ba-9342-921f68fca7f8" />
        </g>
      </g>
    </defs>
    <g
       fill="#000000"
       fill-opacity="1"
       id="id-0ed3dfca-64c6-4348-8f86-a0676bf4b4b3"
       transform="translate(-302.825,-142.314)">
      <g
         transform="translate(302.419,146.72)"
         id="g9281">
        <path
           d="m 4.75,-2.359375 c 0,-1.5625 -0.921875,-2.046875 -1.65625,-2.046875 -1.375,0 -2.6875,1.421875 -2.6875,2.828125 0,0.9375 0.59375,1.6875 1.625,1.6875 0.625,0 1.34375,-0.234375 2.09375,-0.84375 0.125,0.53125 0.453125,0.84375 0.90625,0.84375 0.53125,0 0.84375,-0.546875 0.84375,-0.703125 0,-0.078125 -0.0625,-0.109375 -0.125,-0.109375 -0.0625,0 -0.09375,0.03125 -0.125,0.109375 -0.1875,0.484375 -0.546875,0.484375 -0.5625,0.484375 -0.3125,0 -0.3125,-0.78125 -0.3125,-1.015625 0,-0.203125 0,-0.234375 0.109375,-0.34375 C 5.796875,-2.65625 6,-3.8125 6,-3.8125 6,-3.84375 5.984375,-3.921875 5.875,-3.921875 c -0.09375,0 -0.09375,0.03125 -0.140625,0.21875 -0.1875,0.625 -0.515625,1.375 -0.984375,1.96875 z m -0.65625,1.375 c -0.890625,0.765625 -1.65625,0.875 -2.046875,0.875 -0.59375,0 -0.90625,-0.453125 -0.90625,-1.09375 0,-0.484375 0.265625,-1.5625 0.578125,-2.0625 C 2.1875,-4 2.734375,-4.1875 3.078125,-4.1875 c 0.984375,0 0.984375,1.3125 0.984375,2.078125 0,0.375 0,0.953125 0.03125,1.125 z m 0,0"
           id="id-24b7df5c-bc04-4125-9018-b242ffd6c17a" />
      </g>
    </g>
  </g>
  <g
     id="g14"
     transform="translate(-120.00007)">
    <path
       style="fill:none;fill-opacity:1;fill-rule:evenodd;stroke:#000000;stroke-width:3.5;stroke-linecap:butt;stroke-dasharray:none;stroke-dashoffset:1.35"
       d="m 750,670 50,-20 V 150 l -50,-20"
       id="path11-3"
       sodipodi:nodetypes="cccc" />
    <path
       style="fill:none;fill-opacity:1;fill-rule:evenodd;stroke:#000000;stroke-width:3.5;stroke-linecap:butt;stroke-dasharray:none;stroke-dashoffset:1.35"
       d="M 775,140 V 660"
       id="path12-6"
       sodipodi:nodetypes="cc" />
    <path
       style="fill:#ffffff;fill-opacity:1;fill-rule:evenodd;stroke:none;stroke-width:3.49999;stroke-linecap:butt;stroke-dasharray:none;stroke-dashoffset:1.35"
       d="m 798.06023,462.72438 -0.0653,186.03604 -9.50765,3.80426 c -5.22921,2.09234 -10.00583,4.00266 -10.61471,4.24516 l -1.10706,0.4409 V 466.96955 276.68835 h 10.68002 10.68001 z"
       id="path13-0" />
    <path
       style="fill:#ffffff;fill-opacity:1;fill-rule:evenodd;stroke:none;stroke-width:3.5;stroke-linecap:butt;stroke-dasharray:none;stroke-dashoffset:1.35"
       d="m 776.72125,500.63562 c 0,-85.93675 0.14765,-201.52241 0.32812,-256.85702 l 0.32811,-100.60837 10.15146,4.06631 10.15145,4.0663 0.11847,248.72216 0.11846,248.72218 -10.23348,4.06854 c -5.62841,2.23769 -10.39752,4.06854 -10.59803,4.06854 -0.20051,0 -0.36456,-70.31189 -0.36456,-156.24864 z"
       id="path14" />
  </g>
  <g
     id="g16"
     transform="translate(-80)">
    <path
       style="fill:none;fill-opacity:1;fill-rule:evenodd;stroke:#000000;stroke-width:3.5;stroke-linecap:butt;stroke-dasharray:none;stroke-dashoffset:1.35"
       d="m 250,130 -50,20 v 500 l 50,20"
       id="path11"
       sodipodi:nodetypes="cccc" />
    <path
       style="fill:none;fill-opacity:1;fill-rule:evenodd;stroke:#000000;stroke-width:3.5;stroke-linecap:butt;stroke-dasharray:none;stroke-dashoffset:1.35"
       d="M 225,660 V 140"
       id="path12"
       sodipodi:nodetypes="cc" />
    <path
       style="fill:#ffffff;fill-opacity:1;fill-rule:evenodd;stroke:none;stroke-width:3.5;stroke-linecap:butt;stroke-dasharray:none;stroke-dashoffset:1.35"
       d="m 212.24254,652.73878 -10.15507,-4.07331 0.12586,-248.70671 0.12587,-248.70671 8.27409,-3.31711 c 4.55075,-1.82441 9.23314,-3.69816 10.4053,-4.16389 l 2.13121,-0.84677 v 256.99431 c 0,141.34686 -0.16925,256.97163 -0.3761,256.9439 -0.20685,-0.0276 -4.94587,-1.88338 -10.53116,-4.12371 z"
       id="path16" />
  </g>
  <g
     transform="matrix(7.99997 0 0 7.99997 382.94 363.997)"
     ns1:version="1.10.2"
     ns1:texconverter="xelatex"
     ns1:pdfconverter="inkscape"
     ns1:text="$$\\zeta$$"
     ns1:preamble="/home/whooie/Documents/templates/latex/whooie/inkscape_textext.sty"
     ns1:scale="6.0"
     ns1:alignment="middle center"
     ns1:stroke-to-path="0"
     ns1:inkscapeversion="1.3.2"
     id="g2078"
     ns1:jacobian_sqrt="7.99997"
     style="stroke-width:0">
    <defs
       id="id-6dccdba9-eb98-4da5-b596-202e2d3e8524"
       style="stroke-width:0">
      <g
         id="id-05fe1510-79ad-42e9-b894-e792397060e2"
         style="stroke-width:0">
        <g
           id="id-92b27096-dd04-4969-b01a-c77fb440bfe4"
           style="stroke-width:0">
          <path
             d="m 3.234375,-5.765625 c 0.171875,0.171875 0.40625,0.171875 0.609375,0.171875 0.25,0 0.875,0 0.875,-0.3125 0,-0.25 -0.390625,-0.265625 -0.796875,-0.265625 -0.109375,0 -0.375,0 -0.625,0.09375 -0.0625,-0.109375 -0.078125,-0.15625 -0.078125,-0.375 0,-0.140625 0.046875,-0.34375 0.046875,-0.359375 0,-0.078125 -0.046875,-0.140625 -0.109375,-0.140625 -0.1875,0 -0.1875,0.46875 -0.1875,0.5 0,0.15625 0.03125,0.34375 0.109375,0.484375 -1.046875,0.53125 -2.625,2.375 -2.625,4.296875 0,1.40625 0.90625,1.71875 1.625,1.953125 C 2.375,0.390625 2.40625,0.390625 2.6875,0.484375 c 0.21875,0.078125 0.625,0.21875 0.625,0.6875 0,0.265625 -0.1875,0.65625 -0.5625,0.65625 -0.25,0 -0.53125,-0.125 -0.734375,-0.296875 C 1.9375,1.46875 1.9375,1.453125 1.890625,1.453125 1.84375,1.453125 1.796875,1.5 1.796875,1.5625 c 0,0.109375 0.421875,0.484375 0.953125,0.484375 0.625,0 1.09375,-0.640625 1.09375,-1.203125 C 3.84375,0.453125 3.65625,0.25 3.5625,0.171875 3.40625,-0.015625 3.203125,-0.078125 2.625,-0.28125 1.828125,-0.546875 1.671875,-0.59375 1.421875,-0.8125 1,-1.1875 1,-1.75 1,-1.9375 1,-3.484375 2.21875,-5.234375 3.234375,-5.765625 Z M 3.453125,-5.875 c 0.15625,-0.078125 0.328125,-0.078125 0.46875,-0.078125 0.328125,0 0.359375,0.015625 0.546875,0.0625 -0.078125,0.03125 -0.1875,0.078125 -0.625,0.078125 -0.203125,0 -0.28125,0 -0.390625,-0.0625 z m 0,0"
             id="id-283179a8-f0c5-4f22-9c41-003152f922cd"
             style="stroke-width:0" />
        </g>
      </g>
    </defs>
    <g
       fill="#000000"
       fill-opacity="1"
       id="id-db21ff6f-144c-4304-a393-b4b097539475"
       transform="translate(-303.53, -139.767)"
       style="stroke-width:0">
      <g
         transform="translate(303.077, 146.72)"
         id="g2675"
         style="stroke-width:0">
        <path
           d="m 3.234375,-5.765625 c 0.171875,0.171875 0.40625,0.171875 0.609375,0.171875 0.25,0 0.875,0 0.875,-0.3125 0,-0.25 -0.390625,-0.265625 -0.796875,-0.265625 -0.109375,0 -0.375,0 -0.625,0.09375 -0.0625,-0.109375 -0.078125,-0.15625 -0.078125,-0.375 0,-0.140625 0.046875,-0.34375 0.046875,-0.359375 0,-0.078125 -0.046875,-0.140625 -0.109375,-0.140625 -0.1875,0 -0.1875,0.46875 -0.1875,0.5 0,0.15625 0.03125,0.34375 0.109375,0.484375 -1.046875,0.53125 -2.625,2.375 -2.625,4.296875 0,1.40625 0.90625,1.71875 1.625,1.953125 C 2.375,0.390625 2.40625,0.390625 2.6875,0.484375 c 0.21875,0.078125 0.625,0.21875 0.625,0.6875 0,0.265625 -0.1875,0.65625 -0.5625,0.65625 -0.25,0 -0.53125,-0.125 -0.734375,-0.296875 C 1.9375,1.46875 1.9375,1.453125 1.890625,1.453125 1.84375,1.453125 1.796875,1.5 1.796875,1.5625 c 0,0.109375 0.421875,0.484375 0.953125,0.484375 0.625,0 1.09375,-0.640625 1.09375,-1.203125 C 3.84375,0.453125 3.65625,0.25 3.5625,0.171875 3.40625,-0.015625 3.203125,-0.078125 2.625,-0.28125 1.828125,-0.546875 1.671875,-0.59375 1.421875,-0.8125 1,-1.1875 1,-1.75 1,-1.9375 1,-3.484375 2.21875,-5.234375 3.234375,-5.765625 Z M 3.453125,-5.875 c 0.15625,-0.078125 0.328125,-0.078125 0.46875,-0.078125 0.328125,0 0.359375,0.015625 0.546875,0.0625 -0.078125,0.03125 -0.1875,0.078125 -0.625,0.078125 -0.203125,0 -0.28125,0 -0.390625,-0.0625 z m 0,0"
           id="id-8b5e662f-5f71-46b9-b9d3-8e528fe8adba"
           style="stroke-width:0" />
      </g>
    </g>
  </g>
</svg>
